<mxfile host="65bd71144e">
    <diagram id="HIP3nbAZw_EuaXWnEj3U" name="Page-1">
        <mxGraphModel dx="873" dy="645" grid="1" gridSize="10" guides="1" tooltips="1" connect="1" arrows="1" fold="1" page="1" pageScale="1" pageWidth="850" pageHeight="1100" math="0" shadow="0">
            <root>
                <mxCell id="0"/>
                <mxCell id="1" parent="0"/>
                <mxCell id="7" value="http://ics2o.mths.ca" style="swimlane;whiteSpace=wrap;html=1;fillColor=none;strokeColor=default;" parent="1" vertex="1">
                    <mxGeometry x="40" y="40" width="760" height="480" as="geometry"/>
                </mxCell>
                <mxCell id="8" value="&lt;span style=&quot;&quot;&gt;&amp;nbsp; &amp;nbsp; &amp;nbsp; &amp;nbsp; &amp;nbsp; &amp;nbsp; &amp;nbsp; &amp;nbsp; &amp;nbsp;&lt;span style=&quot;font-family: Roboto, Helvetica, Arial, sans-serif; font-size: 20px; letter-spacing: 0.4px;&quot;&gt;division calculator&lt;/span&gt;&lt;/span&gt;" style="rounded=0;whiteSpace=wrap;html=1;align=left;fillColor=default;fontColor=default;labelBackgroundColor=none;" vertex="1" parent="7">
                    <mxGeometry y="20" width="760" height="50" as="geometry"/>
                </mxCell>
                <mxCell id="9" value="&#10;&lt;h4 style=&quot;padding: 0px; font-family: Roboto, Helvetica, Arial, sans-serif; font-weight: 400; font-size: 24px; line-height: 32px; margin: 24px 0px 16px; font-style: normal; font-variant-ligatures: normal; font-variant-caps: normal; letter-spacing: normal; orphans: 2; text-align: start; text-indent: 0px; text-transform: none; widows: 2; word-spacing: 0px; -webkit-text-stroke-width: 0px; text-decoration-thickness: initial; text-decoration-style: initial; text-decoration-color: initial;&quot;&gt;Computer will division the number&lt;/h4&gt;&#10;&#10;" style="text;html=1;strokeColor=none;fillColor=none;align=center;verticalAlign=middle;whiteSpace=wrap;rounded=0;labelBackgroundColor=none;fontColor=#000000;" vertex="1" parent="7">
                    <mxGeometry y="120" width="400" height="30" as="geometry"/>
                </mxCell>
                <mxCell id="10" value="Number 1" style="rounded=1;whiteSpace=wrap;html=1;labelBackgroundColor=none;strokeColor=default;fontColor=#000000;fillColor=none;" vertex="1" parent="7">
                    <mxGeometry x="30" y="160" width="120" height="30" as="geometry"/>
                </mxCell>
                <mxCell id="11" value="Number2" style="rounded=1;whiteSpace=wrap;html=1;labelBackgroundColor=none;strokeColor=default;fontColor=#000000;fillColor=none;" vertex="1" parent="7">
                    <mxGeometry x="180" y="160" width="120" height="30" as="geometry"/>
                </mxCell>
                <mxCell id="13" value="calculate" style="rounded=1;whiteSpace=wrap;html=1;labelBackgroundColor=none;strokeColor=default;fontColor=#000000;fillColor=none;" vertex="1" parent="7">
                    <mxGeometry x="325" y="160" width="85" height="30" as="geometry"/>
                </mxCell>
                <mxCell id="15" value="Answer" style="rounded=0;whiteSpace=wrap;html=1;labelBackgroundColor=none;strokeColor=default;fontColor=#000000;fillColor=none;" vertex="1" parent="7">
                    <mxGeometry x="40" y="220" width="180" height="30" as="geometry"/>
                </mxCell>
                <mxCell id="16" value="Image for explaining of division" style="whiteSpace=wrap;html=1;aspect=fixed;labelBackgroundColor=none;" vertex="1" parent="7">
                    <mxGeometry x="440" y="90" width="285" height="285" as="geometry"/>
                </mxCell>
            </root>
        </mxGraphModel>
    </diagram>
</mxfile>